PathFileType	4	(X/Y/Z)	C:/Users/opensim2020/Desktop/walking_exp_matlab/subject06_walking18_straight_04.trc	
DataRate	CameraRate	NumFrames	NumMarkers	Units	OrigDataRate	OrigDataStartFrame	OrigNumFrames	
100.00	100.00	7	47	mm	100.00	4674	409	
Frame#	Time	LFHD			RFHD			LBHD			RBHD			C7			T10			CLAV			STRN			RBAK			LSHO			LUPA			LELB			LFRM			LWRA			LWRB			LFIN			RSHO			RUPA			RELB			RFRM			RWRA			RWRB			RFIN			LASI			RASI			LPSI			RPSI			LTHI			LKNE			LTIB			LANK			LHEE			LTOE			RTHI			RKNE			RTIB			RANK			RHEE			RTOE			*39			*40			*41			*42			*43			*44			*45			*46			
		X1	Y1	Z1	X2	Y2	Z2	X3	Y3	Z3	X4	Y4	Z4	X5	Y5	Z5	X6	Y6	Z6	X7	Y7	Z7	X8	Y8	Z8	X9	Y9	Z9	X10	Y10	Z10	X11	Y11	Z11	X12	Y12	Z12	X13	Y13	Z13	X14	Y14	Z14	X15	Y15	Z15	X16	Y16	Z16	X17	Y17	Z17	X18	Y18	Z18	X19	Y19	Z19	X20	Y20	Z20	X21	Y21	Z21	X22	Y22	Z22	X23	Y23	Z23	X24	Y24	Z24	X25	Y25	Z25	X26	Y26	Z26	X27	Y27	Z27	X28	Y28	Z28	X29	Y29	Z29	X30	Y30	Z30	X31	Y31	Z31	X32	Y32	Z32	X33	Y33	Z33	X34	Y34	Z34	X35	Y35	Z35	X36	Y36	Z36	X37	Y37	Z37	X38	Y38	Z38	X39	Y39	Z39	X40	Y40	Z40	X41	Y41	Z41	X42	Y42	Z42	X43	Y43	Z43	X44	Y44	Z44	X45	Y45	Z45	X46	Y46	Z46	X47	Y47	Z47	

154	1.530	-964.36066	267.65991	1670.60303	-1096.15442	260.03430	1660.07825	-971.54547	398.74420	1611.89331	-1100.82019	389.54724	1606.52661	-1026.26367	392.88220	1456.64063	-1034.30859	424.33203	1127.90283	-1022.29730	283.27698	1380.25366	-1013.18298	243.74062	1203.89050	-1109.01379	460.51053	1285.26318	-863.43610	341.73651	1411.17065	-792.96521	323.14746	1209.05359	-781.19397	307.15396	1097.56763	-764.60657	209.32344	985.40912	-811.09363	92.71335	937.21588	-776.77881	135.77586	892.29877	-777.28235	51.82382	858.60712	-1184.91907	319.86087	1411.01123	-1273.24231	348.46869	1211.32617	-1285.63708	337.05438	1090.48218	-1302.75623	314.15829	972.61469	-1269.69299	245.50557	837.90674	-1311.76489	297.98486	836.02661	-1311.31372	256.95413	761.46191	-912.25195	256.49741	967.08514	-1133.47131	237.53525	974.28162	-951.67584	411.73779	993.96735	-1119.53979	392.36670	1001.10229	-858.62482	304.29205	648.85632	-878.53094	283.98022	486.76022	-879.83942	429.19821	281.76086	-913.27094	515.68945	131.31377	-963.39294	553.97827	128.17857	-895.13940	401.74701	49.55887	-1186.23865	286.23993	639.78186	-1162.62756	282.80270	513.36481	-1154.66675	330.13770	250.80531	-1100.95837	342.09525	66.18349	-1056.35535	381.07141	42.05086	-1098.60840	187.14041	32.35062	-1029.40955	365.45554	1705.78186																					 
155	1.540	-965.27783	262.71112	1670.81323	-1097.00415	254.83015	1660.48083	-972.73816	394.00705	1612.50171	-1101.92651	384.40765	1607.11646	-1027.58081	388.06335	1457.08057	-1035.73535	419.68057	1128.35449	-1023.41022	278.50977	1380.65381	-1014.35266	239.09187	1204.21130	-1110.62378	455.62900	1285.74463	-864.63428	337.25381	1411.50220	-793.96985	319.22034	1209.32043	-781.96625	303.80682	1097.63672	-764.39795	208.51088	983.02283	-810.15521	92.69164	931.76678	-776.44745	137.53734	887.90125	-776.27753	54.47375	851.54541	-1186.02344	314.83200	1411.55151	-1274.60303	342.77499	1211.91687	-1286.90198	330.80377	1091.04199	-1303.77246	306.63132	973.43030	-1270.24304	236.32727	839.75372	-1312.43811	288.82962	837.16919	-1311.57227	246.73558	762.98163	-913.51715	251.74841	967.86456	-1134.57422	233.45677	974.13782	-952.62543	407.05597	994.61359	-1120.51428	387.98441	1001.22546	-858.81610	297.46777	649.95013	-879.10889	275.91309	487.99512	-879.98157	416.60165	279.56274	-913.13214	498.64597	126.50932	-963.30719	536.73822	121.98661	-894.60913	382.15234	48.54597	-1186.59924	283.41135	639.56067	-1162.84485	280.65182	513.14984	-1154.63245	329.32339	250.84158	-1100.85474	342.05289	66.24609	-1056.26343	381.08710	42.15703	-1098.65051	187.18216	32.34040	-1030.35925	360.29770	1706.22998																					 
156	1.550	-965.99213	257.77390	1670.96509	-1097.80664	249.65250	1660.81458	-973.74762	388.96164	1612.81702	-1103.36169	379.63245	1607.67078	-1028.85840	383.34576	1457.53381	-1037.07043	414.99280	1128.72290	-1024.46948	273.74686	1380.97839	-1015.50372	234.26978	1204.59180	-1112.17871	450.73529	1286.13989	-865.82922	332.64819	1411.74426	-794.92487	315.30133	1209.49805	-782.68927	300.55545	1097.56519	-764.69397	207.99294	980.53687	-809.11053	93.13491	926.00500	-775.83777	139.49963	883.46533	-775.29498	57.62719	844.76685	-1187.15625	309.82843	1412.04504	-1275.85303	337.14426	1212.39392	-1288.16333	324.64832	1091.58972	-1304.75940	299.07593	974.24500	-1270.71912	227.10008	841.59210	-1312.93115	279.45801	838.16840	-1311.80469	236.51900	764.56726	-914.67773	246.97835	968.58691	-1134.93213	228.39915	974.40814	-953.53406	402.37970	995.23755	-1121.23364	383.20932	1001.08746	-859.05469	290.62173	650.98669	-879.65692	267.99445	489.15985	-880.09357	403.64758	277.17963	-913.04199	481.11826	121.64734	-963.28021	518.96442	115.77275	-893.79138	362.15692	47.67911	-1186.90112	280.56400	639.33606	-1163.20227	278.45685	512.98785	-1154.70752	328.39545	250.80632	-1100.75610	341.98511	66.26462	-1056.18787	381.09335	42.20481	-1098.62354	187.11404	32.31119	-1031.25562	355.17169	1706.68921																					 
157	1.560	-966.72388	252.77686	1671.16675	-1098.54260	244.54298	1661.10059	-974.91089	384.08676	1613.21643	-1103.92896	374.21072	1608.15015	-1029.98865	378.33603	1457.77148	-1038.42566	410.33133	1129.04663	-1025.50745	269.01062	1381.21704	-1016.66785	229.62088	1204.80872	-1113.59583	445.90326	1286.46240	-866.93182	328.05869	1411.88403	-795.84650	311.49411	1209.61292	-783.37250	297.37500	1097.45154	-764.31946	207.62758	977.94940	-807.99194	93.96487	920.07257	-775.42432	141.91031	879.02185	-774.06927	61.21493	837.50537	-1188.22961	304.79642	1412.44873	-1277.09021	331.63083	1212.79810	-1289.44702	318.51935	1092.04065	-1305.68311	291.53897	975.00800	-1271.08997	217.88586	843.47412	-1313.33484	269.96716	839.13306	-1312.11951	226.15970	766.26660	-915.85620	242.15282	969.25220	-1136.72559	224.76187	973.94141	-954.32764	397.77957	995.79749	-1122.11304	378.88083	1001.12836	-859.15649	283.69098	651.96545	-880.07990	260.08923	490.32800	-880.23187	390.49765	274.79620	-912.99512	463.20248	116.86610	-963.31335	500.60663	109.56611	-892.75275	342.08325	46.91213	-1187.19739	277.75055	639.08191	-1163.52893	276.26953	512.73077	-1154.77673	327.40363	250.74339	-1100.87195	342.10696	66.48487	-1056.29431	381.38754	42.54280	-1098.65295	187.10597	32.27171	-1032.08167	350.13019	1707.04871																					 
158	1.570	-967.23755	247.89406	1671.14954	-1099.22046	239.42064	1661.36365	-975.69159	379.14035	1613.42297	-1104.89282	369.15619	1608.56763	-1031.15125	373.55173	1458.07678	-1039.69885	405.75125	1129.31226	-1026.55151	264.22607	1381.41589	-1017.78357	224.85757	1204.99402	-1115.01672	441.02765	1286.76404	-868.03845	323.47610	1411.89429	-796.71643	307.71283	1209.59009	-784.05884	294.22729	1097.28467	-764.49719	207.48083	975.44397	-806.85980	95.22963	913.95850	-774.21118	144.56819	874.45648	-772.80463	65.53892	830.28839	-1189.25732	299.80453	1412.79688	-1278.31250	326.14297	1213.15637	-1290.69897	312.44968	1092.45850	-1306.61047	284.00403	975.76300	-1271.38428	208.65567	845.41388	-1313.92822	260.59131	840.34564	-1312.01257	215.54289	767.98816	-917.03052	237.36215	969.96313	-1137.69946	220.77124	973.71765	-955.08917	393.13721	996.29401	-1123.11108	374.93723	1001.30920	-859.02252	276.96881	653.12170	-880.47913	252.36972	491.50354	-880.35315	377.20142	272.36786	-912.91241	444.89145	112.21729	-963.43994	481.79123	103.52057	-891.71637	321.47000	46.45620	-1187.51208	274.88773	638.83618	-1163.84998	274.11084	512.46216	-1154.85156	326.43539	250.67258	-1100.75793	341.97495	66.39571	-1056.24744	381.41504	42.63687	-1098.65674	187.06746	32.23606	-1032.88416	344.96823	1707.33289																					 
159	1.580	-967.81897	242.99089	1671.12036	-1099.80164	234.24796	1661.58325	-976.57208	374.25241	1613.60010	-1105.77515	364.11594	1608.94385	-1032.20117	368.73172	1458.38257	-1040.85425	401.14917	1129.50256	-1027.50562	259.44513	1381.58313	-1018.88123	220.23375	1205.14331	-1116.37036	436.36511	1287.07385	-868.97192	318.82990	1412.00586	-797.56567	304.04831	1209.49805	-784.76599	291.09882	1097.07971	-764.36542	207.62041	972.81067	-805.62720	96.89685	907.73663	-773.32648	148.12030	870.06293	-771.46722	70.16809	823.15808	-1190.24915	294.85007	1413.10303	-1279.50452	320.65338	1213.47229	-1291.91895	306.37271	1092.83423	-1307.48096	276.51721	976.51105	-1271.59790	199.44469	847.40338	-1314.22437	251.33455	841.39551	-1312.10522	205.01888	769.81592	-918.13348	232.62198	970.53290	-1138.74390	216.29779	973.63574	-955.77356	388.35950	996.71576	-1123.87500	370.61920	1001.20398	-858.96008	270.20532	654.16046	-880.73212	244.56642	492.57794	-880.48999	363.81992	270.06250	-912.92432	426.21027	107.75298	-963.61182	462.54468	97.52081	-890.52557	300.83466	46.10169	-1187.66724	271.91299	638.59906	-1164.14929	271.85214	512.18439	-1154.90576	325.46558	250.65762	-1100.70081	341.93530	66.42432	-1056.18164	381.40204	42.64760	-1098.65759	187.09572	32.20650	-1033.56580	339.95099	1707.52942																					 
160	1.590	-968.55530	238.02509	1671.17822	-1100.40942	229.24359	1661.77563	-977.58362	369.25681	1613.69604	-1106.61792	359.06476	1609.25110	-1033.23389	363.81921	1458.51672	-1041.94031	396.51028	1129.71399	-1028.45703	254.66402	1381.67798	-1020.02576	215.66847	1205.21985	-1117.61816	431.55051	1287.37927	-869.88623	314.21219	1412.02441	-798.41876	300.28751	1209.34363	-785.46100	287.97595	1096.83472	-764.13849	207.78821	970.28412	-804.44849	98.96345	901.44189	-772.14868	151.41920	865.54773	-769.97266	75.44935	815.86914	-1191.19470	289.95078	1413.30908	-1280.71130	315.40820	1213.65820	-1293.09277	300.35123	1093.15759	-1308.31030	269.03241	977.24261	-1271.72620	190.28706	849.37665	-1314.59827	242.09584	842.53760	-1312.14966	194.52478	771.71246	-919.19983	227.71097	971.06818	-1139.83142	212.22365	973.38477	-956.38037	383.68848	997.08771	-1124.59644	366.38086	1001.15125	-858.87256	263.57922	655.07159	-880.81177	236.86638	493.62036	-880.60400	350.13724	267.79291	-912.86237	407.22031	103.47564	-963.84387	442.89789	92.08818	-889.43579	279.99695	45.92214	-1188.20886	269.40393	638.43671	-1164.41406	269.60614	511.89554	-1154.84021	324.48599	250.62231	-1100.84155	342.03076	66.49002	-1056.01355	381.24408	42.60730	-1098.68677	187.09219	32.20623	-1034.24280	334.86523	1707.72485																					 
